<svg width="40" height="40" viewBox="0 0 40 40" fill="none" xmlns="http://www.w3.org/2000/svg">
<path d="M35.9889 12.0052C35.799 11.3008 35.4281 10.6585 34.9128 10.1421C34.3976 9.62573 33.7561 9.25328 33.0522 9.06184C30.4422 8.34518 20.0005 8.33351 20.0005 8.33351C20.0005 8.33351 9.56055 8.32184 6.94888 9.00684C6.24542 9.20709 5.60525 9.5848 5.08983 10.1037C4.5744 10.6227 4.20103 11.2654 4.00555 11.9702C3.31722 14.5802 3.31055 19.9935 3.31055 19.9935C3.31055 19.9935 3.30388 25.4335 3.98722 28.0168C4.37055 29.4452 5.49555 30.5735 6.92555 30.9585C9.56222 31.6752 19.9755 31.6868 19.9755 31.6868C19.9755 31.6868 30.4172 31.6985 33.0272 31.0152C33.7314 30.8241 34.3735 30.4525 34.89 29.9371C35.4065 29.4218 35.7795 28.7806 35.9722 28.0768C36.6622 25.4685 36.6672 20.0568 36.6672 20.0568C36.6672 20.0568 36.7005 14.6152 35.9889 12.0052ZM16.6606 25.0085L16.6689 15.0085L25.3472 20.0168L16.6606 25.0085Z" fill="white"/>
</svg>
